<svg width="25" height="25" viewBox="0 0 25 25" fill="none" xmlns="http://www.w3.org/2000/svg">
<path d="M17.4194 14.646C17.1533 14.5093 15.8276 13.8599 15.5811 13.772C15.3345 13.6792 15.1538 13.6353 14.9756 13.9087C14.7949 14.1797 14.2822 14.7827 14.1211 14.9658C13.9648 15.1465 13.8062 15.1685 13.54 15.0342C11.958 14.2432 10.9204 13.623 9.87793 11.8335C9.60205 11.3574 10.1538 11.3916 10.6689 10.3638C10.7568 10.1831 10.7129 10.0293 10.6445 9.89258C10.5762 9.75586 10.0391 8.43262 9.81445 7.89307C9.59717 7.36816 9.37256 7.44141 9.20898 7.43164C9.05273 7.42187 8.87451 7.42188 8.69385 7.42188C8.51318 7.42188 8.22266 7.49023 7.97607 7.75635C7.72949 8.02734 7.03369 8.6792 7.03369 10.0024C7.03369 11.3257 7.99805 12.6074 8.12988 12.7881C8.2666 12.9687 10.0269 15.6836 12.7295 16.853C14.4385 17.5903 15.1074 17.6538 15.9619 17.5269C16.4819 17.4487 17.5537 16.8774 17.7759 16.2451C17.998 15.6152 17.998 15.0757 17.9321 14.9634C17.8662 14.8438 17.6855 14.7754 17.4194 14.646Z" fill="white"/>
<path d="M22.5879 8.26172C22.0361 6.95068 21.2451 5.77393 20.2368 4.76318C19.2285 3.75488 18.0518 2.96143 16.7383 2.41211C15.3955 1.84814 13.9697 1.5625 12.5 1.5625H12.4512C10.9717 1.56982 9.53859 1.86279 8.19093 2.43896C6.88966 2.99561 5.72267 3.78662 4.72414 4.79492C3.7256 5.80322 2.94191 6.9751 2.39992 8.28125C1.8384 9.63379 1.55519 11.0718 1.56252 12.5513C1.56984 14.2456 1.97511 15.9277 2.73439 17.4316V21.1426C2.73439 21.7627 3.23732 22.2656 3.85744 22.2656H7.57082C9.07472 23.0249 10.7569 23.4302 12.4512 23.4375H12.5025C13.9649 23.4375 15.3833 23.1543 16.7188 22.6001C18.0249 22.0557 19.1992 21.2744 20.2051 20.2759C21.2134 19.2773 22.0069 18.1104 22.5611 16.8091C23.1372 15.4614 23.4302 14.0283 23.4375 12.5488C23.4448 11.062 23.1568 9.61914 22.5879 8.26172V8.26172ZM18.8989 18.9551C17.1875 20.6494 14.917 21.582 12.5 21.582H12.4585C10.9863 21.5747 9.52394 21.2085 8.23244 20.52L8.02736 20.4102H4.58986V16.9727L4.48 16.7676C3.79152 15.4761 3.42531 14.0137 3.41799 12.5415C3.40822 10.1074 4.3384 7.82227 6.04494 6.10107C7.74904 4.37988 10.0269 3.42773 12.461 3.41797H12.5025C13.7232 3.41797 14.9072 3.65478 16.023 4.12354C17.1118 4.58008 18.0884 5.23682 18.9282 6.07666C19.7656 6.91406 20.4248 7.89307 20.8814 8.98193C21.355 10.1099 21.5918 11.3062 21.5869 12.5415C21.5723 14.9731 20.6177 17.251 18.8989 18.9551V18.9551Z" fill="white"/>
</svg>
